<?xml version="1.0" encoding="UTF-8"?>
<svg width="166px" height="85px" viewBox="0 0 166 85" version="1.1" xmlns="http://www.w3.org/2000/svg" xmlns:xlink="http://www.w3.org/1999/xlink">
    <title>Combined Shape</title>
    <g id="Page-1" stroke="none" stroke-width="1" fill="none" fill-rule="evenodd">
        <path d="M101.540387,0.472892168 L101.621276,0.521786027 L164.37705,39.5725541 C166.508686,40.898998 166.540501,43.9869264 164.472496,45.365952 L164.37705,45.4274459 L101.621276,84.478214 C99.3639688,85.8828587 96.4560051,84.2879592 96.3878948,81.6455808 L96.3866756,81.550768 L96.3866756,68.5119073 C96.3866756,67.3581797 96.9616309,66.2838723 97.913225,65.6467036 L98.0096326,65.5844571 L135.107451,42.4996174 L98.0096326,19.4155429 C97.0656989,18.8281685 96.4675362,17.8211701 96.3942829,16.7176733 L96.3885848,16.6031875 L96.3866756,16.4880927 L96.3866756,3.44923196 C96.3866756,0.782190182 99.2680828,-0.86061147 101.540387,0.472892168 Z M69.6121052,3.35441924 L69.6133244,3.44923196 L69.6133244,16.4880927 C69.6133244,17.6418203 69.0383691,18.7161277 68.086775,19.3532964 L67.9903674,19.4155429 L30.892501,42.5 L67.9903674,65.5844571 C68.9343011,66.1718315 69.5324638,67.1788299 69.6057171,68.2823267 L69.6114152,68.3968125 L69.6133244,68.5119073 L69.6133244,81.550768 C69.6133244,84.2178098 66.7319172,85.8606115 64.4596132,84.5271078 L64.3787244,84.478214 L1.62295004,45.4274459 C-0.508685834,44.101002 -0.540501295,41.0130736 1.52750366,39.634048 L1.62295004,39.5725541 L64.3787244,0.521786027 C66.6360312,-0.882858675 69.5439949,0.712040782 69.6121052,3.35441924 Z" id="Combined-Shape" fill="#5E5E5E" fill-rule="nonzero"></path>
    </g>
</svg>