<?xml version="1.0" encoding="UTF-8"?>
<svg width="73px" height="72px" viewBox="0 0 73 72" version="1.1" xmlns="http://www.w3.org/2000/svg" xmlns:xlink="http://www.w3.org/1999/xlink">
    <title>Group 7 Copy 2</title>
    <g id="Page-1" stroke="none" stroke-width="1" fill="none" fill-rule="evenodd">
        <g id="Group-7-Copy-2" transform="translate(3.000000, 3.000000)">
            <g id="Group-6-Copy" fill="#212B3B" stroke-linejoin="round">
                <path d="M54.0588235,-1.3534485 C58.0061752,-1.3534485 61.5798315,0.246531899 64.1666498,2.83335022 C66.7534681,5.42016854 68.3534485,8.99382478 68.3534485,12.9411765 L68.3534485,12.9411765 L68.3534485,35.8039216 C68.3534485,36.2700448 68.3310947,36.73095 68.2874342,37.1856272 L68.2874342,37.1856272 L68.3620668,69.7600195 L61.9336221,62.0154241 L61.5594013,61.5645858 L52.0422114,50.0988599 L12.9411765,50.0985465 C8.99382478,50.0985465 5.42016854,48.4985661 2.83335022,45.9117478 C0.246531899,43.3249295 -1.3534485,39.7512733 -1.3534485,35.8039216 L-1.3534485,35.8039216 L-1.3534485,12.9411765 C-1.3534485,8.99382478 0.246531899,5.42016854 2.83335022,2.83335022 C5.42016854,0.246531899 8.99382478,-1.3534485 12.9411765,-1.3534485 L12.9411765,-1.3534485 Z" id="Combined-Shape" stroke="#FFFFFF" stroke-width="2.706897"></path>
                <path d="M54.0588235,-0.853448276 C57.868104,-0.853448276 61.3167602,0.690567691 63.8130962,3.18690377 C66.3094323,5.68323985 67.8534483,9.13189603 67.8534483,12.9411765 L67.8534483,12.9411765 L67.8534483,35.8039216 C67.8534483,36.2621917 67.8310733,36.7152379 67.7873786,37.1620295 L67.7873786,37.1620295 L67.8588827,68.3709673 L62.3183524,61.6960766 L61.9441315,61.2452383 L52.2769915,49.5988616 L12.9411765,49.5985463 C9.13189603,49.5985463 5.68323985,48.0545303 3.18690377,45.5581943 C0.690567691,43.0618582 -0.853448276,39.613202 -0.853448276,35.8039216 L-0.853448276,35.8039216 L-0.853448276,12.9411765 C-0.853448276,9.13189603 0.690567691,5.68323985 3.18690377,3.18690377 C5.68323985,0.690567691 9.13189603,-0.853448276 12.9411765,-0.853448276 L12.9411765,-0.853448276 Z" id="Combined-Shape" stroke="#212B3B" stroke-width="1.70689655"></path>
            </g>
            <polyline id="Path-5-Copy" stroke="#FFFFFF" stroke-width="3.91304348" stroke-linecap="round" stroke-linejoin="round" points="44 15 56 24.0985915 44 34"></polyline>
            <path d="M23.6150307,39 C25.1104294,39 25.9923313,38.0782361 25.9539877,36.4651494 L25.6472393,29.3214794 L32.1656442,33.6230441 C32.5874233,33.8918919 33.0858896,34.0455192 33.6610429,34.0455192 C34.8496933,34.0455192 36,33.1237553 36,31.5874822 C36,30.6273115 35.5398773,29.9743954 34.5812883,29.4366999 L27.7177914,25.7112376 L34.5812883,21.9857752 C35.5398773,21.4480797 36,20.7951636 36,19.8349929 C36,18.2987198 34.8496933,17.3769559 33.6610429,17.3769559 C33.0858896,17.3769559 32.5874233,17.5305832 32.1656442,17.799431 L25.6472393,21.9857752 L25.9539877,14.5348506 C25.9923313,12.9217639 25.1104294,12 23.6150307,12 C22.0429448,12 21.0843558,12.9985775 21.1226994,14.5348506 L21.4294479,21.9857752 L14.8343558,17.799431 C14.4125767,17.5305832 13.9141104,17.3769559 13.3389571,17.3769559 C12.1503067,17.3769559 11,18.2987198 11,19.8349929 C11,20.7951636 11.4601227,21.4480797 12.4187117,21.9857752 L19.2822086,25.7112376 L12.4187117,29.4366999 C11.4601227,29.9743954 11,30.6273115 11,31.5874822 C11,33.1237553 12.1503067,34.0455192 13.3389571,34.0455192 C13.9141104,34.0455192 14.4125767,33.8918919 14.8343558,33.6230441 L21.4294479,29.3214794 L21.1226994,36.4651494 C21.0843558,38.0014225 22.0429448,39 23.6150307,39 Z" id="*-copy" fill="#FF5959" fill-rule="nonzero"></path>
        </g>
    </g>
</svg>