<?xml version="1.0" encoding="UTF-8"?>
<svg width="316px" height="320px" viewBox="0 0 316 320" version="1.1" xmlns="http://www.w3.org/2000/svg" xmlns:xlink="http://www.w3.org/1999/xlink">
    <title>Shape 2</title>
    <g id="Page-1" stroke="none" stroke-width="1" fill="none" fill-rule="evenodd">
        <g id="Shape-2" transform="translate(0.000000, 0.000000)" fill="#ffffff" fill-rule="nonzero">
            <path d="M294.930202,130.972937 C302.190202,109.182937 299.690202,85.3129374 288.080202,65.4929374 C270.620202,35.0929374 235.520202,19.4529374 201.240202,26.8129374 C185.990202,9.63293737 164.080202,-0.137062631 141.110202,0.00145313679 C106.070202,-0.0770626308 74.9802022,22.4829374 64.2002022,55.8229374 C41.6902022,60.4329374 22.2602022,74.5229374 10.8902022,94.4929374 C-6.69979784,124.812937 -2.68979784,163.032937 20.8102022,189.032937 C13.5502022,210.822937 16.0502022,234.692937 27.6602022,254.512937 C45.1202022,284.912937 80.2202022,300.552937 114.500202,293.192937 C129.740202,310.372937 151.660202,320.142937 174.630202,319.99464 C209.690202,320.082937 240.790202,297.502937 251.570202,264.132937 C274.080202,259.522937 293.510202,245.432937 304.880202,225.462937 C322.450202,195.142937 318.430202,156.952937 294.940202,130.952937 L294.930202,130.972937 Z M174.650202,299.082998 C160.620202,299.102937 147.030202,294.192937 136.260202,285.202937 C136.750202,284.942937 137.600202,284.472937 138.150202,284.132937 L201.870202,247.332937 C205.130202,245.482937 207.130202,242.012937 207.110202,238.262937 L207.110202,148.432937 L234.040202,163.982937 C234.330202,164.122937 234.520202,164.402937 234.560202,164.722937 L234.560202,239.112937 C234.520202,272.192937 207.730202,299.012937 174.650202,299.082998 Z M45.8102022,244.052937 C38.7802022,231.912937 36.2502022,217.682937 38.6602022,203.872937 C39.1302022,204.152937 39.9602022,204.662937 40.5502022,205.002937 L104.270202,241.802937 C107.500202,243.692937 111.500202,243.692937 114.740202,241.802937 L192.530202,196.882937 L192.530202,227.982937 C192.550202,228.302937 192.400202,228.612937 192.150202,228.812937 L127.740202,266.002937 C99.0502022,282.522937 62.4102022,272.702937 45.8202022,244.052937 L45.8102022,244.052937 Z M29.0402022,104.962937 C36.0402022,92.8029374 47.0902022,83.5029374 60.2502022,78.6729374 C60.2502022,79.2229374 60.2202022,80.1929374 60.2202022,80.8729374 L60.2202022,154.482937 C60.2002022,158.222937 62.2002022,161.692937 65.4502022,163.542937 L143.240202,208.452937 L116.310202,224.002937 C116.040202,224.182937 115.700202,224.212937 115.400202,224.082937 L50.9802022,186.862937 C22.3502022,170.282937 12.5302022,133.652937 29.0302022,104.972937 L29.0402022,104.962937 Z M250.300202,156.452937 L172.510202,111.532937 L199.440202,95.9929374 C199.710202,95.8129374 200.050202,95.7829374 200.350202,95.9129374 L264.770202,133.102937 C293.450202,149.672937 303.280202,186.362937 286.710202,215.042937 C279.700202,227.182937 268.660202,236.482937 255.510202,241.322937 L255.510202,165.512937 C255.540202,161.772937 253.550202,158.312937 250.310202,156.452937 L250.300202,156.452937 Z M277.100202,116.112937 C276.630202,115.822937 275.800202,115.322937 275.210202,114.982937 L211.490202,78.1829374 C208.260202,76.2929374 204.260202,76.2929374 201.020202,78.1829374 L123.230202,123.102937 L123.230202,92.0029374 C123.210202,91.6829374 123.360202,91.3729374 123.610202,91.1729374 L188.020202,54.0129374 C216.710202,37.4629374 253.390202,47.3129374 269.930202,76.0129374 C276.920202,88.1329374 279.450202,102.322937 277.080202,116.112937 L277.100202,116.112937 Z M108.590202,171.542937 L81.6502022,155.992937 C81.3602022,155.852937 81.1702022,155.572937 81.1302022,155.252937 L81.1302022,80.8629374 C81.1502022,47.7429374 108.020202,20.9029374 141.140202,20.9229262 C155.150202,20.9229262 168.710202,25.8429374 179.480202,34.8029374 C178.990202,35.0629374 178.150202,35.5329374 177.590202,35.8729374 L113.870202,72.6729374 C110.610202,74.5229374 108.610202,77.9829374 108.630202,81.7329374 L108.590202,171.522937 L108.590202,171.542937 Z M123.220202,140.002937 L157.870202,119.992937 L192.520202,139.992937 L192.520202,180.002937 L157.870202,200.002937 L123.220202,180.002937 L123.220202,140.002937 Z" id="Shape"></path>
        </g>
    </g>
</svg>