<?xml version="1.0" encoding="UTF-8"?>
<svg width="502px" height="450px" viewBox="0 0 502 450" version="1.1" xmlns="http://www.w3.org/2000/svg" xmlns:xlink="http://www.w3.org/1999/xlink">
    <title>Group 4</title>
    <g id="Page-1" stroke="none" stroke-width="1" fill="none" fill-rule="evenodd">
        <g id="Group-4">
            <line x1="72.5" y1="99.5" x2="246.5" y2="99.5" id="Line" stroke="#979797" stroke-width="7" stroke-linecap="square" stroke-dasharray="0,15"></line>
            <rect id="Rectangle" fill="#C8BACC" x="0" y="0" width="146" height="190" rx="4"></rect>
            <g id="Group-3" transform="translate(177.000000, 47.000000)">
                <rect id="Rectangle-Copy-13" fill="#E06767" x="197" y="0" width="128" height="112" rx="4"></rect>
                <rect id="Rectangle-Copy-10" stroke="#5B5555" fill="#24272D" x="69.5" y="0.5" width="142" height="111" rx="4"></rect>
                <text id="Inference-Server" font-family="PTSans-Regular, PT Sans" font-size="27.2951389" font-weight="normal" letter-spacing="-0.00545902758" fill="#E7E7E7">
                    <tspan x="86.6390014" y="48">Inference</tspan>
                    <tspan x="104.195235" y="81">Server</tspan>
                </text>
                <text id="API" font-family="PTSans-Regular, PT Sans" font-size="27.2951389" font-weight="normal" letter-spacing="-0.00545902758" fill="#344854">
                    <tspan x="0.423926389" y="32">API</tspan>
                </text>
                <text id="Backend" font-family="PTSans-Regular, PT Sans" font-size="27.2951389" font-weight="normal" letter-spacing="-0.00545902758" fill="#FFFFFF">
                    <tspan x="218.010685" y="65">Backend</tspan>
                </text>
            </g>
            <text id="LMQL-Runtime" font-family="PTSans-Bold, PT Sans" font-size="27.2951389" font-weight="bold" letter-spacing="-0.00545902758" fill="#413E3E">
                <tspan x="38.9192896" y="88">LMQL</tspan>
                <tspan x="23.6694955" y="121">Runtime</tspan>
            </text>
            <g id="Group-2" transform="translate(12.000000, 274.000000)">
                <g id="Group">
                    <rect id="Rectangle" stroke="#979797" fill="#24272D" x="0.5" y="0.5" width="120" height="134" rx="4"></rect>
                    <rect id="Rectangle-Copy" fill="#6C6E72" x="9" y="10" width="92" height="4"></rect>
                    <rect id="Rectangle-Copy-6" fill="#6C6E72" x="9" y="72" width="92" height="4"></rect>
                    <rect id="Rectangle-Copy-2" fill="#A7D884" x="9" y="19" width="69" height="4"></rect>
                    <rect id="Rectangle-Copy-7" fill="#6C6E72" x="9" y="81" width="69" height="4"></rect>
                    <rect id="Rectangle-Copy-3" fill="#C678DD" x="9" y="28" width="69" height="4"></rect>
                    <rect id="Rectangle-Copy-11" fill="#6C6E72" x="9" y="54" width="69" height="4"></rect>
                    <rect id="Rectangle-Copy-8" fill="#C678DD" x="9" y="90" width="69" height="4"></rect>
                    <rect id="Rectangle-Copy-4" fill="#A7D884" x="9" y="37" width="92" height="4"></rect>
                    <rect id="Rectangle-Copy-12" fill="#C678DD" x="9" y="63" width="92" height="4"></rect>
                    <rect id="Rectangle-Copy-9" fill="#6C6E72" x="9" y="99" width="61" height="4"></rect>
                    <rect id="Rectangle-Copy-5" fill="#A7D884" x="9" y="46" width="105" height="4"></rect>
                </g>
                <text id="Query" font-family="PTSans-Regular, PT Sans" font-size="27.2951389" font-weight="normal" letter-spacing="-0.00545902758" fill="#344854">
                    <tspan x="26" y="168">Query</tspan>
                </text>
            </g>
            <path id="Line-2" d="M72.5,209 L82,228 L74,228 L74,259 L71,259 L71,228 L63,228 L72.5,209 Z" fill="#979797" fill-rule="nonzero"></path>
        </g>
    </g>
</svg>