<svg xmlns="http://www.w3.org/2000/svg" xmlns:xlink="http://www.w3.org/1999/xlink" style="transform: scale(1.5); margin: auto; background: transparent; display: block;" width="38px" height="38px" viewBox="0 0 100 100" preserveAspectRatio="xMidYMid">
<g transform="rotate(0 50 50)">
  <rect x="48.5" y="28.5" rx="0" ry="0" width="3" height="9" fill="#cccccc">
    <animate attributeName="opacity" values="1;0" keyTimes="0;1" dur="1.075268817204301s" begin="-0.9775171065493645s" repeatCount="indefinite"></animate>
  </rect>
</g><g transform="rotate(32.72727272727273 50 50)">
  <rect x="48.5" y="28.5" rx="0" ry="0" width="3" height="9" fill="#cccccc">
    <animate attributeName="opacity" values="1;0" keyTimes="0;1" dur="1.075268817204301s" begin="-0.8797653958944281s" repeatCount="indefinite"></animate>
  </rect>
</g><g transform="rotate(65.45454545454545 50 50)">
  <rect x="48.5" y="28.5" rx="0" ry="0" width="3" height="9" fill="#cccccc">
    <animate attributeName="opacity" values="1;0" keyTimes="0;1" dur="1.075268817204301s" begin="-0.7820136852394917s" repeatCount="indefinite"></animate>
  </rect>
</g><g transform="rotate(98.18181818181819 50 50)">
  <rect x="48.5" y="28.5" rx="0" ry="0" width="3" height="9" fill="#cccccc">
    <animate attributeName="opacity" values="1;0" keyTimes="0;1" dur="1.075268817204301s" begin="-0.6842619745845552s" repeatCount="indefinite"></animate>
  </rect>
</g><g transform="rotate(130.9090909090909 50 50)">
  <rect x="48.5" y="28.5" rx="0" ry="0" width="3" height="9" fill="#cccccc">
    <animate attributeName="opacity" values="1;0" keyTimes="0;1" dur="1.075268817204301s" begin="-0.5865102639296187s" repeatCount="indefinite"></animate>
  </rect>
</g><g transform="rotate(163.63636363636363 50 50)">
  <rect x="48.5" y="28.5" rx="0" ry="0" width="3" height="9" fill="#cccccc">
    <animate attributeName="opacity" values="1;0" keyTimes="0;1" dur="1.075268817204301s" begin="-0.48875855327468226s" repeatCount="indefinite"></animate>
  </rect>
</g><g transform="rotate(196.36363636363637 50 50)">
  <rect x="48.5" y="28.5" rx="0" ry="0" width="3" height="9" fill="#cccccc">
    <animate attributeName="opacity" values="1;0" keyTimes="0;1" dur="1.075268817204301s" begin="-0.39100684261974583s" repeatCount="indefinite"></animate>
  </rect>
</g><g transform="rotate(229.0909090909091 50 50)">
  <rect x="48.5" y="28.5" rx="0" ry="0" width="3" height="9" fill="#cccccc">
    <animate attributeName="opacity" values="1;0" keyTimes="0;1" dur="1.075268817204301s" begin="-0.29325513196480935s" repeatCount="indefinite"></animate>
  </rect>
</g><g transform="rotate(261.8181818181818 50 50)">
  <rect x="48.5" y="28.5" rx="0" ry="0" width="3" height="9" fill="#cccccc">
    <animate attributeName="opacity" values="1;0" keyTimes="0;1" dur="1.075268817204301s" begin="-0.19550342130987292s" repeatCount="indefinite"></animate>
  </rect>
</g><g transform="rotate(294.54545454545456 50 50)">
  <rect x="48.5" y="28.5" rx="0" ry="0" width="3" height="9" fill="#cccccc">
    <animate attributeName="opacity" values="1;0" keyTimes="0;1" dur="1.075268817204301s" begin="-0.09775171065493646s" repeatCount="indefinite"></animate>
  </rect>
</g><g transform="rotate(327.27272727272725 50 50)">
  <rect x="48.5" y="28.5" rx="0" ry="0" width="3" height="9" fill="#cccccc">
    <animate attributeName="opacity" values="1;0" keyTimes="0;1" dur="1.075268817204301s" begin="0s" repeatCount="indefinite"></animate>
  </rect>
</g>
</svg>