<?xml version="1.0" encoding="UTF-8"?>
<svg width="330px" height="25px" viewBox="0 0 330 25" version="1.1" xmlns="http://www.w3.org/2000/svg" xmlns:xlink="http://www.w3.org/1999/xlink">
    <title>Group 8</title>
    <g id="Logo" stroke="none" stroke-width="1" fill="none" fill-rule="evenodd">
        <g id="Group-8" transform="translate(0.125000, 0.000000)" fill-rule="nonzero">
            <g id="sri-copy" fill="#0D0D1B">
                <g id="Group" transform="translate(30.145251, 0.000000)">
                    <path d="M16.1204905,12.390625 C14.2706987,11.3107439 12.2549394,10.5329347 10.151744,10.0875 C5.9125775,9.04583333 5.18768002,8.22395833 5.18768002,6.74270833 C5.18768002,4.87916667 7.02853808,3.453125 9.31556842,3.453125 C11.881324,3.453125 13.4434568,4.71458333 13.722182,6.96145833 L13.778351,7.56458333 L18.0736864,7.56458333 L18.0736864,6.853125 C18.0736864,2.68645833 14.7268645,0 9.53918445,0 C4.63022963,0 0.893404343,2.96041667 0.893404343,6.853125 C0.889313762,8.64076829 1.70918254,10.334043 3.12320593,11.4583333 C4.46172276,12.5 5.80023958,12.8833333 8.70088927,13.5416667 L9.14706155,13.6510417 C10.4610527,13.8725739 11.7256308,14.3177942 12.8838868,14.9666667 C13.8800478,15.4992589 14.484741,16.5391725 14.4460197,17.653125 C14.4460197,19.6270833 12.0477112,21.490625 9.4819557,21.490625 C8.25573672,21.5678396 7.04375125,21.1968468 6.07896478,20.4489583 C5.07832611,19.7827614 4.47393097,18.6763954 4.46172276,17.4885417 L4.46172276,16.7760417 L0,16.7760417 L0.0561689563,17.54375 C0.278725198,21.984375 4.07171944,25 9.4819557,25 C14.8370828,25 18.7413552,21.875 18.7413552,17.5989583 C18.7055623,15.564628 17.7437351,13.6532297 16.1204905,12.390625 Z" id="Path"></path>
                    <g transform="translate(45.682318, 0.383333)" id="Rectangle">
                        <rect x="0" y="0" width="4.29533547" height="24.1229167"></rect>
                    </g>
                    <g transform="translate(21.865621, 0.383333)" id="Path">
                        <path d="M12.9962247,15.515625 C17.5141165,14.803125 20.5822132,11.896875 20.5822132,8.059375 C20.4250346,4.79208446 18.260301,1.94784823 15.115808,0.877083333 C12.7174995,0 11.2115356,0 7.92088263,0 L0,0 L0,24.1229167 L4.29533547,24.1229167 L4.29533547,3.50833333 L8.47833303,3.50833333 C11.1553667,3.50833333 12.1038802,3.61770833 13.6660131,4.33020833 C15.1943922,4.95696324 16.2309391,6.37911595 16.3430467,8.003125 C16.2082936,9.64874447 15.1554231,11.0848741 13.6098441,11.73125 C12.2713273,12.334375 11.0440886,12.44375 7.52981952,12.44375 L4.74150775,12.44375 L15.5630401,24.121875 L21.0856142,24.121875 L12.9962247,15.515625 Z"></path>
                    </g>
                </g>
                <g id="Group" transform="translate(0.000000, 2.343750)">
                    <path d="M19.8324022,6.25 L7.42126035,6.25 C4.77836441,6.25 3.99105062,5.4543099 1.68679575,3.12446018 L0,1.42079807 L1.40584117,0 L3.09263692,1.70474175 C5.28472361,3.92122992 5.62229642,4.26131456 7.42126035,4.26131456 L19.8324022,4.26131456 L19.8324022,6.25 Z" id="Path"></path>
                </g>
                <g id="Group" transform="translate(10.312849, 12.500000)">
                    <rect id="Rectangle" x="0" y="0" width="14.2793296" height="1.5625"></rect>
                </g>
                <g id="Group" transform="translate(3.966480, 14.843750)">
                    <path d="M19.2530855,8.59375 L17.6061587,6.93040957 C15.4648409,4.76775098 15.13629,4.43592563 13.3245662,4.43592563 L5.59892534,4.43592563 C3.01849663,4.43592563 2.24979172,3.65955963 0,1.3862926 L1.37261284,0 C3.5139306,2.16265859 3.84248155,2.49448394 5.65420534,2.49448394 L13.3798462,2.49448394 C15.9602749,2.49448394 16.7289798,3.27084993 18.9787715,5.54411697 L20.6256983,7.2074574 L19.2530855,8.59375 Z" id="Path"></path>
                </g>
                <g id="Group" transform="translate(126.134078, 0.781250)">
                    <path d="M2.56758254,2.09160981 L5.93428176,2.09160981 C7.51511076,1.95691952 9.09827169,2.3241583 10.4427312,3.13741472 C11.4199628,3.91173611 12.0026404,5.05556239 12.0409646,6.27482943 C11.9954885,7.65915468 11.2207205,8.9253792 9.98624795,9.63290898 C9.01581452,10.1830024 7.93153135,10.3482395 5.64911529,10.3482395 L5.02131534,10.3482395 L5.02131534,12.5496589 L5.59164828,12.5496589 C8.33054756,12.5496589 9.24351398,12.6594684 10.4427312,13.0997522 C12.2266981,13.7453019 13.4089941,15.389774 13.4104142,17.2275442 C13.3520294,18.9704028 12.2975475,20.5386741 10.6715149,21.3009543 C9.18194224,21.8541151 7.58321807,22.0799116 5.99174877,21.961903 L5.02131534,21.961903 L5.02131534,24.1633223 L6.27691524,24.1633223 C9.81493121,24.1633223 11.1843809,23.8882756 12.953931,22.7326612 C14.8187051,21.4840242 15.9112773,19.4176501 15.864147,17.22859 C15.9281337,14.5941099 14.2567011,12.2090816 11.6983311,11.2842349 C13.4330529,10.2416288 14.4895327,8.41148017 14.4946974,6.44006661 C14.4946974,2.47751182 11.2993149,0 6.27691524,0 L0,0 L0,24.21875 L2.51119981,24.21875 L2.51119981,2.09160981 L2.56758254,2.09160981 Z" id="Path"></path>
                </g>
                <g id="Group" transform="translate(85.675978, 0.000000)">
                    <g transform="translate(3.817277, 22.022263)" id="Rectangle">
                        <rect x="0" y="0" width="8.87546066" height="2.19648724"></rect>
                    </g>
                    <rect id="Rectangle" x="0" y="0" width="2.46056582" height="24.16449"></rect>
                </g>
                <g id="Group" transform="translate(99.955307, 0.000000)">
                    <polygon id="Path" points="15.6996198 11.697747 18.3257766 11.697747 13.1849207 0 10.5035658 0 0 24.21875 2.51363756 24.21875 11.8994413 2.80157442"></polygon>
                    <g transform="translate(8.771194, 13.838839)" id="Path">
                        <polygon points="0.950044603 0 0 2.1963926 8.77119392 2.1963926 12.3463338 10.378868 15.0276888 10.378868 10.5035658 0"></polygon>
                    </g>
                </g>
            </g>
            <g id="eth-copy" transform="translate(178.000000, 0.000000)" fill="#00000F" fill-opacity="0.94117647">
                <path d="M54.9755378,9.49605462 L49.4799663,9.49605462 L51.4098784,0 L4.91120619,0 L0,24.5314744 L18.5371472,24.5314744 L19.797854,18.2007714 L8.84397705,18.2007714 L9.47036596,15.0354198 L20.4313789,15.0354198 L21.5438139,9.49605462 L10.6081737,9.49605462 L11.2329768,6.33070308 L28.6386594,6.33070308 L24.9952961,24.5314744 L32.5539865,24.5314744 L36.1957641,6.33070308 L42.5413216,6.33070308 L38.899544,24.5314744 L46.516116,24.5314744 L48.400833,15.0354198 L53.8948187,15.0354198 L52.0116875,24.5314744 L59.5917862,24.5314744 L64.506164,0 L56.90545,0 L54.9755378,9.49605462 Z M87.4066253,3.16535154 L89.9351749,3.16535154 L90.5615638,0 L88.0449076,0 L87.4066253,3.16535154 Z M93.8917327,3.16535154 L96.4218681,3.16535154 L97.0466712,0 L94.5300151,0 L93.8917327,3.16535154 Z M117.542275,3.16535154 L120.070825,3.16535154 L120.698799,0 L118.180557,0 L117.542275,3.16535154 Z M130.199295,7.84057577 C125.786822,7.84057577 122.690557,10.958447 121.699436,16.396521 C121.543321,17.2476549 121.463715,18.1110078 121.461566,18.9762825 C121.461566,22.6908225 123.707845,24.9999734 127.3298,24.9999734 C129.424585,25.0054729 131.431244,24.1591278 132.887217,22.6560037 L132.909418,22.6322635 L131.506783,20.916643 L131.48141,20.8865721 L131.454452,20.9150603 C130.484983,22.1265621 129.016516,22.8328581 127.463007,22.834846 C125.736869,22.834846 123.891797,21.8013587 123.891797,18.9082274 C123.898173,18.0690263 123.987409,17.2324953 124.15821,16.4107651 C124.417787,14.6476765 125.162144,12.9909595 126.308548,11.6247535 C127.243953,10.5964522 128.570616,10.0097078 129.962219,10.0088416 C131.309164,9.94817561 132.570904,10.666344 133.204376,11.8542415 L133.224992,11.8874777 L135.010596,10.3744397 L135.035969,10.3522822 L135.01694,10.3253767 C133.971942,8.69675449 132.134889,7.749256 130.199295,7.84057577 L130.199295,7.84057577 Z M146.337928,7.48526506 C144.543094,7.39669829 142.79753,8.08685694 141.550414,9.37814528 L143.447024,0 L141.001729,0 L136.088937,24.5314744 L138.534232,24.5314744 L140.573564,14.2258812 C141.447337,9.88301885 144.823494,9.66302692 145.489528,9.66302692 C146.29409,9.58117523 147.093416,9.86093509 147.670538,10.4263687 C148.24766,10.9918024 148.542702,11.7842473 148.475579,12.5886031 C148.463434,13.1116678 148.406133,13.6327142 148.304313,14.145956 L146.230094,24.5314744 L148.672218,24.5314744 L150.817798,13.9204247 C150.928479,13.3692957 150.985831,12.8088259 150.989064,12.2467451 C151.078043,10.9798006 150.620913,9.73519522 149.732587,8.82579369 C148.84426,7.91639216 147.60922,7.42868305 146.337928,7.48526506 L146.337928,7.48526506 Z M113.371635,24.4911162 L113.363706,24.5322658 L115.774907,24.5322658 L119.065431,7.91417019 L116.694668,7.91417019 L113.371635,24.4911162 Z M69.1501638,10.2430776 L69.1430277,10.2881838 L77.3273141,10.2881838 L66.5367741,22.5262242 L66.5320167,22.5325549 L66.1268462,24.5322658 L77.7483426,24.5322658 L78.2058444,22.1582521 L69.5180681,22.1582521 L80.3403241,9.92021173 L80.3450815,9.91229835 L80.7518378,7.91417019 L69.6021152,7.91417019 L69.1501638,10.2430776 Z M109.357196,7.71158769 C107.592514,7.66535401 105.907515,8.44457901 104.802,9.81812914 L105.176248,7.95136307 L105.182591,7.91417019 L102.803899,7.91417019 L99.5157536,24.4911162 L99.5094104,24.5322658 L101.923783,24.5322658 L103.934571,14.363574 C104.449161,11.7561156 106.446469,9.86244406 108.687197,9.86244406 C109.604092,9.84046943 110.471804,10.2754005 111.001665,11.0225454 L111.025452,11.0526162 L112.983115,9.29268079 L112.964086,9.26894065 C112.066131,8.22331598 110.735605,7.64883279 109.357196,7.71158769 L109.357196,7.71158769 Z M94.7924641,7.91417019 L97.2377595,7.91417019 L97.2314163,7.95373708 L93.9456497,24.5322658 L91.5661648,24.5322658 L91.5740937,24.4911162 L91.888874,22.7659996 C90.6574309,24.094052 88.902259,24.8131517 87.0910521,24.7316829 C85.8371481,24.7877437 84.6190016,24.3063607 83.7434393,23.4087847 C82.8678771,22.5112087 82.4183574,21.2829963 82.5081054,20.0335099 C82.5149296,19.5281089 82.5725714,19.024668 82.6801641,18.5307593 L82.7079156,18.3804051 L84.7868924,7.91417019 L87.199679,7.91417019 L87.1917501,7.95373708 L85.1484536,18.1604131 C85.0512757,18.6667309 84.9963773,19.1802258 84.9843239,19.6956086 C84.9217915,20.4936242 85.2183145,21.2780261 85.7934232,21.8359451 C86.3685318,22.3938641 87.1625752,22.6674322 87.9600676,22.5824092 C88.6142079,22.5824092 91.9158325,22.364 92.7777119,18.0773226 L94.7924641,7.91417019 Z" id="path4"></path>
            </g>
        </g>
    </g>
</svg>