<?xml version="1.0" encoding="UTF-8"?>
<svg width="127px" height="34px" viewBox="0 0 127 34" version="1.1" xmlns="http://www.w3.org/2000/svg" xmlns:xlink="http://www.w3.org/1999/xlink">
    <title>Group 3 Copy 8</title>
    <defs>
        <path d="M27.4275706,0 C31.6097079,1.19932267e-16 35,3.39029211 35,7.57242938 L35,34 C35,34 32.5057869,31.0367512 27.5173607,25.1102536 L27.4275706,25.1111111 L7.57242938,25.1111111 C3.39029211,25.1111111 2.28852094e-15,21.720819 0,17.5386817 L0,7.57242938 C1.26419274e-15,3.39029211 3.39029211,1.65642457e-15 7.57242938,0 L27.4275706,0 Z M97.4462035,4.08984902 C100.847338,4.08984902 100.847338,4.08984902 103.398315,5.62023362 C105.949291,7.15061822 105.949291,7.15061822 107.358584,9.89153981 C108.767877,12.6324614 108.767877,12.6324614 108.767877,16.270492 C108.767877,18.4617187 108.767877,18.4617187 108.003944,20.4567069 C107.24001,22.451695 107.24001,22.451695 105.860172,24.3015496 L105.860172,24.3015496 L108.032517,26.5257555 L105.857403,28.6759471 L97.8980936,20.5678542 L100.073208,18.3856904 L102.900102,21.3019555 L103.319013,21.9537347 L103.524944,21.1408359 L103.672965,20.8159044 C104.097584,19.8323863 104.097584,19.8323863 104.288878,18.7441816 C104.512054,17.4746093 104.512054,17.4746093 104.512054,16.270492 C104.512054,13.6369415 104.512054,13.6369415 103.650316,11.5481767 C102.788577,9.45941196 102.788577,9.45941196 101.201172,8.24736448 C99.6137658,7.03531699 99.6137658,7.03531699 97.4462035,7.03531699 C95.2849349,7.03531699 95.2849349,7.03531699 93.6913612,8.24736448 C92.0977875,9.45941196 92.0977875,9.45941196 91.2266087,11.5481767 C90.3554299,13.6369415 90.3554299,13.6369415 90.3554299,16.270492 C90.3554299,18.154081 90.3554299,18.154081 90.8384111,19.8283404 C91.3213923,21.5025997 91.3213923,21.5025997 92.2210188,22.7798503 C93.1206453,24.0571009 93.1206453,24.0571009 94.3814063,24.7813839 C95.6421673,25.5056669 95.6421673,25.5056669 97.1914331,25.5056669 C97.5539522,25.5056669 97.5539522,25.5056669 97.9629191,25.4578346 C98.371886,25.4100022 98.371886,25.4100022 98.7366709,25.3664495 C99.7192488,25.2793442 99.7192488,25.2793442 100.645057,25.7458359 C101.570866,26.2123275 101.570866,26.2123275 102.082924,26.7923581 C100.860429,27.6405019 100.860429,27.6405019 99.6191784,28.0458184 C98.377928,28.4511349 98.377928,28.4511349 97.1914331,28.4511349 C93.8829425,28.4511349 93.8829425,28.4511349 91.3858402,26.9131978 C88.8887379,25.3752608 88.8887379,25.3752608 87.4906476,22.6313182 C86.0925573,19.8873756 86.0925573,19.8873756 86.0925573,16.270492 C86.0925573,13.5719902 86.0925573,13.5719902 86.9279877,11.3392247 C87.7634181,9.1064593 87.7634181,9.1064593 89.2877607,7.48670367 C90.8121033,5.86694803 90.8121033,5.86694803 92.8884065,4.97839852 C94.9647096,4.08984902 94.9647096,4.08984902 97.4462035,4.08984902 Z M45.1869932,5.44325379 L45.1869932,24.8153701 L55.3133611,24.8153701 L55.3133611,28 L41.3684584,28 L41.3684584,5.44325379 L45.1869932,5.44325379 Z M62.7244409,5.44325379 L70.3423777,22.985152 L77.959811,5.44325379 L82.2133689,5.44325379 L82.2133689,28 L78.394834,28 L78.394834,12.7535529 L71.7954752,28 L68.8887767,28 L62.2894179,12.7535529 L62.2894179,28 L58.470883,28 L58.470883,5.44325379 L62.7244409,5.44325379 Z M116.023696,5.44325379 L116.023696,24.8153701 L126.150064,24.8153701 L126.150064,28 L112.205161,28 L112.205161,5.44325379 L116.023696,5.44325379 Z" id="path-1"></path>
        <linearGradient x1="43.7618463%" y1="38.9606619%" x2="93.3378909%" y2="73.5466175%" id="linearGradient-3">
            <stop stop-color="#212B3B" offset="0%"></stop>
            <stop stop-color="#D8D8D8" offset="100%"></stop>
        </linearGradient>
        <filter x="-122.0%" y="-125.6%" width="343.9%" height="351.3%" filterUnits="objectBoundingBox" id="filter-4">
            <feGaussianBlur stdDeviation="41.4634146" in="SourceGraphic"></feGaussianBlur>
        </filter>
        <filter x="-150.1%" y="-86.8%" width="400.1%" height="273.7%" filterUnits="objectBoundingBox" id="filter-5">
            <feGaussianBlur stdDeviation="51.5181722" in="SourceGraphic"></feGaussianBlur>
        </filter>
    </defs>
    <g id="Page-1" stroke="none" stroke-width="1" fill="none" fill-rule="evenodd">
        <g id="Group-3-Copy-8" transform="translate(0.000000, 0.000000)">
            <g id="Rectangle">
                <mask id="mask-2" fill="white">
                    <use xlink:href="#path-1"></use>
                </mask>
                <use id="Mask" fill="#212B3B" fill-rule="nonzero" xlink:href="#path-1"></use>
                <rect fill="url(#linearGradient-3)" mask="url(#mask-2)" x="-15" y="-22.3004073" width="249" height="117"></rect>
                <ellipse id="Oval" stroke="#979797" stroke-width="0.829268293" fill="#656271" filter="url(#filter-4)" mask="url(#mask-2)" cx="5" cy="38.5" rx="50.5853659" ry="49.0853659"></ellipse>
                <ellipse id="Oval-Copy" stroke="#979797" stroke-width="1.03036344" fill="#B4C8E9" filter="url(#filter-5)" mask="url(#mask-2)" cx="157.5" cy="-43" rx="50.9848183" ry="88.4848183"></ellipse>
            </g>
            <g id="Group-2" transform="translate(5.000000, 5.000000)">
                <polyline id="Path-5-Copy" stroke="#FFFFFF" stroke-width="2.28968714" stroke-linecap="round" stroke-linejoin="round" points="17.037037 1.75 23 6.35915493 17.037037 11.375"></polyline>
                <path d="M6.44768234,14 C7.21199727,14 7.6627471,13.5220484 7.64314928,12.685633 L7.48636673,8.98150782 L10.8179959,11.2119488 C11.0335719,11.3513514 11.2883436,11.43101 11.5823108,11.43101 C12.1898432,11.43101 12.7777778,10.9530583 12.7777778,10.1564723 C12.7777778,9.65860597 12.542604,9.3200569 12.0526585,9.04125178 L8.54464894,7.10953058 L12.0526585,5.17780939 C12.542604,4.89900427 12.7777778,4.56045519 12.7777778,4.0625889 C12.7777778,3.26600284 12.1898432,2.78805121 11.5823108,2.78805121 C11.2883436,2.78805121 11.0335719,2.86770982 10.8179959,3.00711238 L7.48636673,5.17780939 L7.64314928,1.314367 C7.6627471,0.477951636 7.21199727,0 6.44768234,0 C5.64417178,0 5.15422631,0.517780939 5.17382413,1.314367 L5.33060668,5.17780939 L1.95978187,3.00711238 C1.74420586,2.86770982 1.48943422,2.78805121 1.19546694,2.78805121 C0.58793456,2.78805121 0,3.26600284 0,4.0625889 C0,4.56045519 0.235173824,4.89900427 0.725119291,5.17780939 L4.23312883,7.10953058 L0.725119291,9.04125178 C0.235173824,9.3200569 0,9.65860597 0,10.1564723 C0,10.9530583 0.58793456,11.43101 1.19546694,11.43101 C1.48943422,11.43101 1.74420586,11.3513514 1.95978187,11.2119488 L5.33060668,8.98150782 L5.17382413,12.685633 C5.15422631,13.4822191 5.64417178,14 6.44768234,14 Z" id="*-copy" fill="#FF5959" fill-rule="nonzero"></path>
            </g>
        </g>
    </g>
</svg>