<?xml version="1.0" encoding="UTF-8"?>
<svg width="237px" height="52px" viewBox="0 0 237 52" version="1.1" xmlns="http://www.w3.org/2000/svg" xmlns:xlink="http://www.w3.org/1999/xlink">
    <title>Group 14</title>
    <g id="Stickers" stroke="none" stroke-width="1" fill="none" fill-rule="evenodd">
        <g id="Group-14" transform="translate(1.000000, 1.000000)">
            <g id="Group-12">
                <g id="Combined-Shape-2" fill="#212B3B" stroke="#FFFFFF" stroke-linejoin="round" stroke-width="0.522959184">
                    <path d="M41.1075861,-0.261479592 C43.9115064,-0.261479592 46.4499797,0.875033646 48.2874731,2.71252695 C50.1249664,4.55002025 51.2614796,7.08849362 51.2614796,9.89241387 L51.2614796,9.89241387 L51.2614796,27.0356907 C51.2614796,27.4079537 51.2414362,27.775536 51.2023787,28.1374184 L51.2023787,28.1374184 L51.2634381,50.7241111 L47.7840413,46.5522728 L47.4583046,46.1617106 L39.9759405,37.1902665 L9.89241387,37.1895842 C7.08849362,37.1895842 4.55002025,36.0530709 2.71252695,34.2155776 C0.875033646,32.3780843 -0.261479592,29.839611 -0.261479592,27.0356907 L-0.261479592,27.0356907 L-0.261479592,9.89241387 C-0.261479592,7.08849362 0.875033646,4.55002025 2.71252695,2.71252695 C4.55002025,0.875033646 7.08849362,-0.261479592 9.89241387,-0.261479592 L9.89241387,-0.261479592 Z" id="Combined-Shape"></path>
                </g>
                <polyline id="Path-5-Copy" stroke="#FFFFFF" stroke-width="2.99118443" stroke-linecap="round" stroke-linejoin="round" points="33.4925373 11.3636364 42.6268657 18.2565087 33.4925373 25.7575758"></polyline>
                <path d="M17.9756204,29.5454545 C19.113909,29.5454545 19.7852074,28.8471486 19.7560205,27.6251132 L19.5225254,22.213242 L24.4842963,25.4720031 C24.8053521,25.6756757 25.1847816,25.79206 25.6225849,25.79206 C26.5273784,25.79206 27.4029851,25.093754 27.4029851,23.9299108 C27.4029851,23.2025087 27.0527424,22.7078753 26.3230702,22.3005302 L21.0986173,19.4782103 L26.3230702,16.6558903 C27.0527424,16.2485452 27.4029851,15.7539118 27.4029851,15.0265098 C27.4029851,13.8626665 26.5273784,13.1643605 25.6225849,13.1643605 C25.1847816,13.1643605 24.8053521,13.2807449 24.4842963,13.4844174 L19.5225254,16.6558903 L19.7560205,11.0112505 C19.7852074,9.78921505 19.113909,9.09090909 17.9756204,9.09090909 C16.778958,9.09090909 16.0492858,9.84740722 16.0784727,11.0112505 L16.3119678,16.6558903 L11.2918231,13.4844174 C10.9707673,13.2807449 10.5913378,13.1643605 10.1535345,13.1643605 C9.24874096,13.1643605 8.37313433,13.8626665 8.37313433,15.0265098 C8.37313433,15.7539118 8.72337698,16.2485452 9.45304917,16.6558903 L14.6775021,19.4782103 L9.45304917,22.3005302 C8.72337698,22.7078753 8.37313433,23.2025087 8.37313433,23.9299108 C8.37313433,25.093754 9.24874096,25.79206 10.1535345,25.79206 C10.5913378,25.79206 10.9707673,25.6756757 11.2918231,25.4720031 L16.3119678,22.213242 L16.0784727,27.6251132 C16.0492858,28.7889564 16.778958,29.5454545 17.9756204,29.5454545 Z" id="*-copy" fill="#FF5959" fill-rule="nonzero"></path>
            </g>
            <path d="M91.0575458,36 L91.0575458,33.4512704 L81.3983084,33.4512704 L81.3983084,14.8745443 L78.3907603,14.8745443 L78.3907603,36 L91.0575458,36 Z M97.2487706,36 L97.2487706,20.7415738 L103.938184,36 L106.164373,36 L112.841054,20.7415738 L112.841054,36 L115.848131,36 L115.848131,14.8745443 L112.542563,14.8745443 L105.057644,31.9828626 L97.5595223,14.8745443 L94.2412225,14.8745443 L94.2412225,36 L97.2487706,36 Z M131.656072,39.0179222 L131.656,36.107 L131.818568,36.085709 C132.520706,35.9810877 133.198776,35.8110781 133.852777,35.5756801 L134.24229,35.4265948 C135.531037,34.9034883 136.657492,34.1640973 137.621655,33.2084219 C138.585818,32.2527466 139.339749,31.1159958 139.883446,29.7981698 C140.427144,28.4803438 140.698993,27.028283 140.698993,25.4419877 C140.698993,23.8556923 140.426594,22.4049676 139.881796,21.0898137 C139.336998,19.7746598 138.583068,18.6363372 137.620005,17.6748461 C136.656942,16.7133549 135.531037,15.9710561 134.24229,15.4479495 C132.953542,14.924843 131.568521,14.6632898 130.087224,14.6632898 C128.598382,14.6632898 127.208487,14.9258647 125.91754,15.4510146 C124.626592,15.9761645 123.498329,16.7184634 122.532751,17.6779112 C121.567173,18.6373589 120.811985,19.7746598 120.267188,21.0898137 C119.72239,22.4049676 119.449991,23.8556923 119.449991,25.4419877 C119.449991,27.028283 119.72239,28.4803438 120.267188,29.7981698 C120.811985,31.1159958 121.567173,32.2527466 122.532751,33.2084219 C123.498329,34.1640973 124.626592,34.9034883 125.91754,35.4265948 C126.692108,35.7404587 127.502298,35.9601634 128.348108,36.085709 L128.648,36.125 L128.648524,39.0179222 L131.656072,39.0179222 Z M128.648,33.508 L128.360524,33.4542994 C127.589042,33.2920839 126.870831,33.0163176 126.205893,32.6270003 C125.065998,31.9595994 124.16628,31.0109187 123.506739,29.7809582 C122.847197,28.5509977 122.517426,27.1026308 122.517426,25.4358575 C122.517426,23.7499078 122.846332,22.2961181 123.504145,21.0744883 C124.161958,19.8528585 125.061676,18.9094435 126.203299,18.2442431 C127.344923,17.5790428 128.642236,17.2464426 130.09524,17.2464426 C131.529067,17.2464426 132.814671,17.5790428 133.95205,18.2442431 C135.08943,18.9094435 135.986947,19.8530157 136.644603,21.0749599 C137.302258,22.296904 137.631086,23.7510081 137.631086,25.4372722 C137.631086,27.108761 137.302258,28.5570493 136.644603,29.7821371 C135.986947,31.0072249 135.08943,31.954491 133.95205,32.6239353 C133.288579,33.0144445 132.57467,33.2910551 131.810324,33.4537673 L131.656,33.483 L131.656072,30.4357059 L128.648524,30.4357059 L128.648,33.508 Z M156.937115,36 L156.937115,33.4512704 L147.277878,33.4512704 L147.277878,14.8745443 L144.270329,14.8745443 L144.270329,36 L156.937115,36 Z M175.821854,36 C178.109188,36 180.082783,35.5774909 181.742641,34.7324727 C183.402498,33.8874544 184.688809,32.6831934 185.601573,31.1196897 C186.514337,29.5561859 186.970719,27.687982 186.970719,25.515078 C186.970719,23.333686 186.514337,21.4453627 185.601573,19.8501078 C184.688809,18.254853 183.402498,17.0267787 181.742641,16.165885 C180.082783,15.3049912 178.109188,14.8745443 175.821854,14.8745443 L175.821854,14.8745443 L168.571296,14.8745443 L168.571296,36 L175.821854,36 Z M175.821854,33.4512704 L171.578844,33.4512704 L171.578844,17.423274 L175.821854,17.423274 C178.466309,17.423274 180.476449,18.1407378 181.852276,19.5756655 C183.228103,21.0105932 183.916016,22.9903974 183.916016,25.515078 C183.916016,28.0196391 183.228103,29.9684781 181.852276,31.361595 C180.476449,32.7547119 178.466309,33.4512704 175.821854,33.4512704 L175.821854,33.4512704 Z M196.971681,36.2112546 C198.411796,36.2112546 199.713982,35.8964947 200.87824,35.266975 C202.042498,34.6374553 202.965322,33.7392304 203.646712,32.5723005 C204.328103,31.4053706 204.668798,30.0229421 204.668798,28.4250152 C204.668798,26.8472077 204.333133,25.4798689 203.661802,24.3229987 C202.990472,23.1661285 202.080615,22.2729335 200.932233,21.6434138 C199.783851,21.0138941 198.489602,20.6991342 197.049487,20.6991342 C195.621004,20.6991342 194.332571,21.0138941 193.184189,21.6434138 C192.035807,22.2729335 191.131766,23.1711584 190.472067,24.3380883 C189.812368,25.5050182 189.482519,26.8874467 189.482519,28.4853736 C189.482519,30.0631811 189.80443,31.4305199 190.448254,32.5873901 C191.092077,33.7442603 191.980242,34.6374553 193.112749,35.266975 C194.245256,35.8964947 195.531567,36.2112546 196.971681,36.2112546 Z M196.941502,33.6153699 C196.149298,33.6153699 195.419573,33.4307579 194.75233,33.061534 C194.085086,32.6923101 193.54909,32.1272356 193.144343,31.3663105 C192.739596,30.6053854 192.537222,29.6408292 192.537222,28.4726418 C192.537222,27.2896791 192.744626,26.3156133 193.159433,25.5504442 C193.57424,24.7852752 194.120295,24.2180787 194.797599,23.8488548 C195.474902,23.4796309 196.209656,23.2950189 197.001861,23.2950189 C197.805697,23.2950189 198.557112,23.4796309 199.256107,23.8488548 C199.955102,24.2180787 200.522849,24.7831532 200.959347,25.5440783 C201.395845,26.3050034 201.614095,27.2695596 201.614095,28.437747 C201.614095,29.6207097 201.387908,30.5947755 200.935534,31.3599446 C200.48316,32.1251136 199.902445,32.6923101 199.193391,33.061534 C198.484336,33.4307579 197.733707,33.6153699 196.941502,33.6153699 Z M214.582541,36.2112546 C216.12011,36.2112546 217.489806,35.8562557 218.691631,35.1462581 C219.893456,34.4362604 220.777613,33.4691893 221.344102,32.2450446 L221.344102,32.2450446 L218.80386,31.3462696 C218.444853,32.0495084 217.9065,32.6035014 217.1888,33.0082488 C216.4711,33.4129962 215.663178,33.6153699 214.765031,33.6153699 C213.395649,33.6153699 212.310533,33.1538007 211.509683,32.2306623 C210.708834,31.3075239 210.308409,30.0590943 210.308409,28.4853736 C210.308409,27.4316158 210.488541,26.5171225 210.848806,25.7418937 C211.20907,24.9666649 211.722824,24.3650453 212.390068,23.9370347 C213.057312,23.5090242 213.845823,23.2950189 214.7556,23.2950189 C215.673866,23.2950189 216.489727,23.5053304 217.203182,23.9259533 C217.916638,24.3465762 218.418446,24.912751 218.708607,25.6244776 L218.708607,25.6244776 L221.296475,24.7257027 C220.773369,23.4814385 219.919627,22.4992777 218.735249,21.7792203 C217.550872,21.0591629 216.189899,20.6991342 214.652331,20.6991342 C213.183609,20.6991342 211.893054,21.0289837 210.780667,21.6886827 C209.668279,22.3483816 208.802356,23.263818 208.182896,24.4349919 C207.563436,25.6061658 207.253706,26.9663528 207.253706,28.5155528 C207.253706,30.0446334 207.560528,31.3847009 208.174172,32.5357554 C208.787816,33.6868098 209.645016,34.5871566 210.745772,35.2367958 C211.846528,35.886435 213.125451,36.2112546 214.582541,36.2112546 Z M229.848889,36.2112546 C231.068633,36.2112546 232.126399,36.0156398 233.022187,35.6244101 C233.917976,35.2331805 234.61312,34.6931768 235.107619,34.0043989 C235.602118,33.315621 235.849368,32.5344193 235.849368,31.6607937 C235.826104,30.8846218 235.654303,30.2371046 235.333963,29.718242 C235.013623,29.1993794 234.5919,28.7768703 234.068793,28.4507147 C233.545687,28.124559 232.973618,27.8558539 232.352586,27.6445993 C231.731554,27.4333448 231.111858,27.2456678 230.493499,27.0815682 C230.02855,26.9523634 229.598025,26.8382483 229.201922,26.7392227 C228.80582,26.6401971 228.461274,26.521838 228.168284,26.3841453 C227.875294,26.2464526 227.646985,26.0722147 227.483357,25.8614317 C227.319729,25.6506487 227.237915,25.3890168 227.237915,25.0765361 C227.237915,24.48867 227.488466,24.044784 227.989566,23.744878 C228.490667,23.4449719 229.124116,23.2950189 229.889914,23.2950189 C230.297648,23.2950189 230.707504,23.3424883 231.119482,23.4374271 C231.53146,23.5323659 231.897383,23.6974086 232.217251,23.932555 C232.537119,24.1677014 232.767472,24.4828543 232.908308,24.8780134 L232.908308,24.8780134 L235.474485,24.0141332 C235.045689,22.9022175 234.340485,22.0717387 233.358874,21.5226969 C232.377264,20.9736551 231.245307,20.6991342 229.963005,20.6991342 C228.864921,20.6991342 227.878045,20.8860254 227.002376,21.2598076 C226.126707,21.6335899 225.437929,22.1561462 224.936042,22.8274767 C224.434155,23.4988073 224.183212,24.2903045 224.183212,25.2019685 C224.183212,25.9633652 224.354228,26.5913131 224.696259,27.0858122 C225.03829,27.5803113 225.478011,27.9842728 226.015421,28.2976966 C226.552831,28.6111204 227.126236,28.856248 227.735636,29.0330794 C228.345037,29.2099107 228.917106,29.3645007 229.451844,29.4968491 C230.034366,29.6461734 230.579792,29.8031997 231.088124,29.9679279 C231.596455,30.1326562 232.007883,30.3498051 232.322407,30.6193747 C232.636931,30.8889443 232.794193,31.2562035 232.794193,31.7211521 C232.794193,32.263435 232.543721,32.7147087 232.042777,33.0749732 C231.541834,33.4352376 230.833801,33.6153699 229.918679,33.6153699 C229.40909,33.6153699 228.918128,33.5408649 228.445791,33.391855 C227.973455,33.2428451 227.564699,32.9983462 227.219525,32.6583584 C226.87435,32.3183706 226.635588,31.8465845 226.50324,31.2430001 L226.50324,31.2430001 L223.929046,32.141775 C224.294341,33.5363066 224.996636,34.5631861 226.035933,35.2224135 C227.07523,35.8816409 228.346216,36.2112546 229.848889,36.2112546 Z" id="LMQLDocs-Copy" fill="#000000" fill-rule="nonzero"></path>
        </g>
    </g>
</svg>